<?xml version="1.0" encoding="utf-8"?>
<!-- Generator: Adobe Illustrator 22.1.0, SVG Export Plug-In . SVG Version: 6.00 Build 0)  -->
<svg version="1.1" id="Layer_1" xmlns="http://www.w3.org/2000/svg" xmlns:xlink="http://www.w3.org/1999/xlink" x="0px" y="0px"
	 width="708.66144px" height="708.66144px" viewBox="0 0 708.66144 708.66144" enable-background="new 0 0 708.66144 708.66144"
	 xml:space="preserve">
<g>
	<path fill="#CCC7C0" d="M346.32462,465.64807c-0.06213,1.31656-0.14392,2.1629-0.13568,3.00833
		c0.09549,9.82739-3.35626,18.50757-8.63953,26.5762c-0.86935,1.32776-1.96457,2.51459-3.01123,3.71796
		c-6.90314,7.93692-18.78342,4.90555-23.18591-1.40869c-3.5784-5.1322-5.4317-10.75003-5.05936-16.96613
		c0.23318-3.89182,0.93509-7.75558,1.45914-11.88791c-0.52802,0-31.25647,9.96191-31.67886,10.42099
		c0.61417,1.02682,1.29156,2.14624,1.95651,3.27295c9.00577,15.25986,13.49252,35.40851-1.22324,48.92816
		c-8.2814,7.60828-20.12506,10.07507-31.37074,10.11969c-7.95682,0.03156-16.00856-1.01886-23.36848-4.04266
		c-10.96346-4.50433-21.32936-14.38-21.13474-27.02573c0.1736-11.27997,9.308-19.38165,20.06786-20.79184
		c5.99428-0.78564,11.75658-0.01135,17.2444,2.59421c0.98538,0.4678,1.99237,0.89005,2.96227,1.32126
		c3.17206-2.56827,6.10068-5.18884,9.28613-7.4472c3.08202-2.18503,6.42845-3.99719,9.9221-6.13428
		c-0.59543-0.97476-1.07938-1.92471-1.70706-2.76758c-2.78831-3.74438-5.64435-7.43832-8.42627-11.18741
		c-4.48584-6.04541-8.41621-12.37436-9.62141-20.86319c-1.45067,1.42862-2.40555,2.26505-3.24077,3.20755
		c-8.50781,9.60071-17.91777,18.21005-28.30251,25.74124c-17.02654,12.3479-36.99786,23.25543-58.30461,25.12109
		c-7.12758,0.62411-14.55083,0.11707-20.98819-3.0058c-7.44054-3.6095-13.08131-10.73099-14.89128-18.80032
		c-2.64474-11.79095,3.47702-26.54498,14.6922-31.76938c7.29274-3.39722,17.06992-1.82529,21.72635,4.73541
		c1.67532,2.36044,2.62479,5.48169,1.58037,8.18109c-1.03758,2.68176-5.01093,4.40131-7.573,2.81488
		c-3.84378-2.38007-0.27391-7.60495-2.60449-10.71069c-1.22969-1.63867-3.6351-1.85947-5.63419-1.4111
		c-4.35921,0.97766-7.8735,4.37878-9.97672,8.32025c-2.8562,5.35257-4.30196,12.2702-3.58595,18.31268
		c0.58162,4.90839,2.68984,9.7092,6.28861,13.09732c3.68834,3.47244,8.72635,5.28143,13.7724,5.7276
		c5.04605,0.4462,10.12682-0.38242,15.03502-1.63596c27.25995-6.96198,52.23746-25.87204,70.69727-46.59653
		c4.24559-4.76645,8.33894-9.67163,12.41107-14.58862c4.4583-5.38324,9.75281-9.25903,16.87766-10.27588
		c17.06088-2.43484,24.92316,10.50598,25.88281,22.09616c0.04977,0.60074-0.0643,1.22629-0.17447,1.82706
		c-0.44955,2.45181-1.73022,3.81345-3.67932,3.95853c-5.06686,0.3772-5.34558-10.51685-6.73029-13.80029
		c-1.36197-3.22958-3.45532-6.24835-6.41333-8.1286c-1.48376-0.94315-3.27026-1.59167-4.99246-1.23785
		c-1.08218,0.22235-2.05219,0.82303-2.90692,1.52304c-3.75426,3.07446-5.51817,8.12549-5.42403,12.97711
		c0.13068,6.73322,3.31752,13.22455,7.158,18.61407c3.34949,4.7005,6.9324,9.23389,10.34097,13.89334
		c1.03705,1.41757,2.08508,1.73395,3.76273,1.14252c5.0961-1.79657,34.69766-10.9613,35.59457-11.31635
		c-0.35181-0.81479-0.55273-1.48083-0.90167-2.05725c-7.53732-12.4509,9.03897-19.75314,19.19022-17.25854
		c7.2164,1.77338,12.60544,7.44138,15.14169,14.27765c0.42038,1.13303,0.8493,2.26285,1.40973,3.75461
		c9.31479-1.32568,19.69101-1.63019,28.18222-6.06097c1.42014-0.74103,2.77582-1.75693,3.39597-3.28473
		c0.7453-1.83621,0.36447-3.92795,1.32898-5.70624c4.94415-9.11551,18.14877-10.33905,25.86514-4.37241
		c2.6875,2.07809,4.70926,4.92572,5.82828,8.13034c0.39694,1.13669,0.75021,2.28864,1.22949,3.75748
		c1.31622-0.45224,16.13931-6.12366,22.43591-8.56967c2.83411-1.10098,5.71594-1.33722,8.66812-0.48837
		c3.76041,1.08121,5.78006,3.27585,5.58328,7.18137c-0.19028,3.77472-2.06015,13.6304-1.75082,15.13565
		c0.789-0.83899,1.60406-1.65503,2.36282-2.5206c6.08493-6.94083,12.3782-13.67252,19.96313-19.0249
		c2.19748-1.55063,4.53723-2.94385,6.94601-4.1387c4.3844-2.1749,12.12268-2.17862,15.41922,2.07819
		c1.57111,2.02881,1.68573,4.80127,1.60495,7.366c-0.44812,14.22952-4.83728,28.27029-3.80075,42.46912
		c0.29254,4.00723,1.14041,8.23431,3.91217,11.14301c5.34186,5.6058,12.56406,0.72589,16.82483-3.64441
		c3.24124-3.32462,5.94968-7.17221,8.85062-10.8244c4.27686-5.3844,8.28497-11.00378,12.83429-16.14557
		c8.76141-9.90253,19.19855-17.54382,31.80328-21.95169c6.61523-2.31329,13.35883-3.10492,20.31342-1.7753
		c10.83954,2.07239,17.78827,12.34589,15.26288,22.67496c-0.72046,2.94666-2.12537,5.59457-4.43561,7.48596
		c-2.0907,1.71164-6.79291,4.04047-9.09113,1.50934c-1.11298-1.22583-0.98645-3.12775-0.53656-4.72119
		c1.37903-4.88443,5.14532-9.29407,4.58838-14.33881c-0.40356-3.65518-3.18005-6.77936-6.55554-8.23856
		s-7.24506-1.43213-10.83087-0.61649c-10.14075,2.30658-19.39911,8.25497-27.0376,15.14145
		c-11.36029,10.24179-18.47723,23.71921-28.80017,34.79541c-5.6156,6.02548-12.65149,8.7392-20.96237,7.56262
		c-8.3537-1.18259-14.22385-5.69986-17.64355-13.37915c-3.15384-7.08234-3.59305-14.582-2.43539-22.05884
		c1.33234-8.60498,3.31952-17.10809,4.98727-25.66226c0.29886-1.53302,0.42789-3.09915,0.74084-5.43869
		c-1.90921,0.85147-3.24081,1.32138-4.45111,2.00583c-6.38333,3.60956-11.73199,8.47754-16.59778,13.90039
		c-6.0907,6.78793-11.42596,14.38428-15.80127,22.35248c-1.30832,2.38272-3.16977,4.73468-5.81189,5.37357
		c-1.87643,0.45374-3.8616-0.04025-5.62912-0.81659c-1.02817-0.4516-2.0592-1.04025-2.64737-1.99689
		c-0.59085-0.96106-0.6481-2.14743-0.65726-3.27557c-0.08008-9.8457,2.86545-19.17139,5.14456-28.64938
		c0.27612-1.14838,0.56259-2.29425,0.99139-4.04041c-1.79788,0.54315-15.30173,5.53409-20.86914,7.46774
		c-2.20566,0.76605-2.93146,1.97232-3.02667,4.27319c-0.5228,12.63211-5.54471,26.60397-14.64896,35.67407
		c-3.87579,3.86121-9.28677,6.569-14.71555,5.89154c-7.32318-0.91385-12.78763-7.8663-14.09464-15.12967
		c-0.83783-4.6561-0.28546-9.41833,0.8663-13.97c0.23108-0.91321,2.97229-11.59955,3.94849-11.63705
		C363.73285,463.06137,355.13995,463.91138,346.32462,465.64807z M238.37993,496.9852
		c-0.39392-0.203-0.99838-0.42279-1.49887-0.78592c-10.48663-7.60739-25.19991-1.56897-27.30853,11.22089
		c-0.72223,4.38055-0.08717,8.56506,1.8663,12.54633c3.24416,6.61182,8.50874,11.00958,15.23372,13.75043
		c8.6156,3.51147,17.44815,3.75781,26.39684,1.53265c14.02748-3.48798,21.94801-15.87781,19.33562-30.16974
		c-1.23273-6.74377-3.9985-12.87402-7.50192-18.70364c-0.48932-0.81427-1.12668-1.53952-1.65677-2.25369
		c-6.70496,2.4873-15.28114,9.03644-17.39955,13.24945c0.73672,1.07623,1.59261,2.13516,2.23055,3.31223
		c0.63683,1.17487,1.21875,2.42743,1.54008,3.71686c1.11548,4.4769-0.98228,8.1907-5.38882,9.41428
		c-3.0701,0.85254-6.19809,0.89063-8.61922-1.57745c-2.33745-2.38284-1.59839-5.27356-0.59047-7.96133
		C235.87358,501.99725,237.048,499.83789,238.37993,496.9852z M385.22772,497.79034
		c10.30981-4.61014,21.26523-25.82629,19.12598-36.42154c-2.89359,0.37683-5.78857,0.98203-8.69897,1.06863
		c-2.90503,0.08646-5.8255-0.34653-9.05743-0.57422c-0.3869,1.2962-0.85901,2.53226-1.11301,3.81152
		c-0.35797,1.80298-0.58594,3.63406-0.81351,5.46008c-0.53098,4.26169-1.22473,8.51559-1.48666,12.79504
		C382.90018,488.56915,383.10019,493.22244,385.22772,497.79034z M324.22,497.56888
		c8.37207-4.31,16.35651-21.33234,14.48102-30.23029c-5.83365,0-11.65784,0-17.96753,0
		C320.78891,477.65091,319.16281,487.91162,324.22,497.56888z M338.7514,462.86783
		c-1.00558-6.31641-3.62509-11.17331-8.70285-14.59668c-3.15936-2.13-6.31161-1.61761-9.31018,0.31082
		c-2.90488,1.86816-4.51147,4.55478-3.98074,8.08469c0.54874,3.6499,2.85852,6.06219,6.36069,6.84366
		C328.20547,464.64545,333.29556,464.01859,338.7514,462.86783z M404.55081,456.81863
		c0.19415-4.25522-1.10876-8.13983-3.63055-11.14737c-3.09735-3.69397-6.51361-4.10623-10.21878-0.99496
		c-1.28024,1.07504-2.46243,2.47498-3.18307,3.97049c-2.48578,5.15842,0.71188,10.20358,6.43469,10.24017
		C397.52933,458.90982,401.02905,458.30862,404.55081,456.81863z M240.50095,510.53882
		c3.25229-2.10886,3.5936-4.30423,1.08752-7.73825C240.65704,505.42926,239.06464,507.67535,240.50095,510.53882z"/>
	<g>
		<path fill="#C1BBB2" d="M375.09717,409.75668c0.03027,0.13577,0.06094,0.27151,0.09207,0.4072
			c3.58984-3.77246,10.97375-0.8931,11.94986,4.22214s-3.48587,10.2117-8.62952,11.02484
			c-5.14365,0.81317-10.36783-1.88724-13.78162-5.81973c-3.41376-3.9325-5.30212-8.94403-6.8017-13.931
			c-7.61929-25.33853-6.81647-52.47412-3.32684-78.7023c4.14948-31.18777,12.00674-61.88058,23.35349-91.22591
			c-8.88077,5.35252-15.47305,13.77438-21.0885,22.49132c-15.37064,23.86008-24.8378,51.06616-31.7464,78.59491
			c-0.85837,3.42038-1.96951,7.24173-5.07388,8.91473c-3.65878,1.97177-8.45288-0.26117-10.68018-3.77029
			s-2.53101-7.86725-2.67319-12.02112c-0.26828-7.83694-0.18719-15.68433,0.16922-23.51776
			c1.24167-27.29083,5.81451-54.3073,10.37842-81.24246c-20.40213,19.64262-28.61362,48.65424-32.99878,76.63367
			c-4.11801,26.27509-5.60947,52.96109-4.44495,79.53137c0.06418,1.46457,0.11664,3.01767-0.60123,4.29587
			c-0.72607,1.29282-2.15472,2.08209-3.61691,2.32831c-3.1134,0.52426-6.26706-1.20084-8.28293-3.63077
			c-2.01584-2.42993-3.10468-5.478-4.10837-8.47147c-15.55278-46.37955-21.8403-97.64099-6.30649-144.84424
			c1.53317-4.65891,4.491-10.13576,9.38992-9.89838c3.1597,0.15311,5.70715,2.9046,6.6615,5.92061
			c0.95435,3.01602,0.66049,6.26549,0.38242,9.41664c-2.50876,28.43079-2.92981,57.04556-1.25864,85.53784
			c5.12051-32.90662,12.68082-66.37917,31.21472-94.04794c3.41635-5.10016,7.36038-10.11778,12.79526-12.97176
			c5.43488-2.85399,12.69791-3.01526,17.26135,1.09059c5.55688,4.99971,5.09491,13.68898,4.19049,21.10909
			c-2.23337,18.32327-4.46674,36.64656-6.7001,54.96983c10.29352-21.13504,21.53796-42.28175,38.1489-58.91676
			c3.23093-3.2356,6.74396-6.34354,10.98138-8.06175s9.35345-1.84355,13.16501,0.68234
			c3.53607,2.34335,5.43045,6.60316,5.88989,10.82028c0.45947,4.2171-0.32947,8.46024-1.14502,12.62317
			c-8.02557,40.9664-18.98047,81.45868-23.42419,122.96658C373.095,384.74976,372.36722,397.50641,375.09717,409.75668z"/>
		<path fill="#C1BBB2" d="M588.17706,421.15195c4.07135-1.17667,6.89746-4.8316,9.14423-8.43204
			c6.92468-11.0968,11.18127-23.63907,14.67206-36.24481c5.62701-20.3201,9.41968-41.1478,11.31689-62.14709
			c-8.05859,0.48407-16.11713,0.96811-24.17566,1.45215c-2.00555,0.12045-4.46375,0.00156-5.39636-1.77805
			c-1.38477-2.64243,2.09827-5.1593,4.97418-5.95261c7.22461-1.99286,14.85004-2.52072,22.28033-1.5423
			c4.87512,0.64194,10.40338,2.58063,11.92072,7.2579c0.59851,1.84509,0.45221,3.83884,0.28015,5.77097
			c-2.73541,30.71121-10.4068,60.97751-22.63031,89.28384c-2.59473,6.0087-5.64233,12.22894-11.08661,15.86169
			c-5.65234,3.77161-13.16699,4.05872-19.57996,1.81213c-6.41302-2.24655-11.82043-6.77011-16.21875-11.94974
			c-9.07214-10.68362-14.24884-24.23654-16.85468-38.008c-4.77045-25.21149-3.40619-51.89084-0.19177-77.21164
			c3.04541-23.9892,9.15594-48.13751,22.72925-68.47485c4.71436-7.06369,10.37946-13.66953,17.57697-18.17696
			c7.19745-4.50743,16.09381-6.74396,24.3476-4.74503c10.20502,2.47151,18.09442,11.09451,22.06757,20.81386
			c3.97308,9.71935,4.56476,20.46916,4.42395,30.96829c-0.03625,2.70447-0.14899,5.52853-1.46234,7.89297
			s-4.21277,4.07559-6.75323,3.1474c-2.69006-0.98288-3.69879-4.21106-4.17755-7.03479
			c-1.32458-7.8125-1.34094-15.79704-2.55786-23.62704c-1.21698-7.83-3.81787-15.77579-9.38586-21.41385
			c-0.54828-0.55521-1.17694-1.11165-1.95093-1.21065c-1.17548-0.15034-2.18475,0.78389-2.97565,1.66638
			c-8.29919,9.26013-13.60699,20.80244-17.86816,32.48442c-17.35663,47.58295-19.00745,100.10971-9.1275,149.78644
			c1.36212,6.84872,2.98932,13.78745,6.58893,19.77103C588.13019,421.16541,588.15363,421.15872,588.17706,421.15195z"/>
		<path fill="#C1BBB2" d="M462.72717,307.52417c9.29935-27.58502,20.82132-55.3997,41.41034-75.97646
			c4.47809-4.47545,9.50336-8.65271,15.50409-10.67119s13.16492-1.51974,17.9646,2.6089
			c6.41577,5.51875,6.72559,15.22957,5.97235,23.65877c-1.21143,13.55719-3.85706,26.94189-6.63684,40.26624
			c-8.06671,38.66611-17.35699,77.66983-15.52435,117.12589c0.10944,2.35666,0.18781,4.94928-1.27972,6.79651
			c-2.20099,2.77051-6.87292,2.19302-9.41498-0.26825c-2.54205-2.4613-3.47583-6.10703-4.18774-9.57303
			c-5.00909-24.38687-4.45752-49.63977-1.31464-74.33661c3.14285-24.69681,8.83514-48.98517,14.08197-73.32199
			c1.80267-8.36127,3.56195-16.81122,3.51007-25.36444c-11.49713,7.01967-20.63849,17.44153-27.67395,28.92902
			s-12.08557,24.06827-16.70007,36.72394c-9.55133,26.1954-17.43143,53.26462-19.45459,81.07349
			c-0.28897,3.97217-0.92749,8.70114-4.51053,10.43991c-2.88449,1.39975-6.51233-0.01352-8.58859-2.4566
			c-2.07623-2.44308-2.93893-5.66913-3.62802-8.80038c-4.86389-22.10202-4.96799-45.72791-4.04782-68.26077
			c0.91364-22.37271,3.86224-45.0184,12.53067-65.82881c1.56506-3.75722,3.42722-7.58873,6.66168-10.05939
			c3.2345-2.47067,8.21198-3.11328,11.25192-0.40681c3.40872,3.03481,2.9165,8.40256,2.13754,12.89952
			c-3.72351,21.49605-7.59845,43.07018-8.08975,64.88084C462.70959,307.57635,462.71838,307.55026,462.72717,307.52417z"/>
		<path fill="#C1BBB2" d="M149.69286,425.74808c4.84927-1.81604,5.98552-8.1922,6.29811-13.42807
			c1.29709-21.72672,2.59418-43.45343,3.89127-65.18011c0.15414-2.58203,0.34048-5.27417,1.65227-7.50348
			c1.31178-2.22934,4.12244-3.80676,6.52669-2.85269c2.9819,1.18329,3.51738,5.10657,3.54755,8.31454
			c0.22198,23.60123-1.68532,47.22205-5.69119,70.4819c-0.8024,4.65906-1.85938,9.62949-5.2877,12.88486
			c-4.77388,4.53302-12.46475,4.09714-18.63506,1.8024c-9.57901-3.56244-17.41885-10.6712-24.17874-18.33624
			c-16.54993-18.76596-27.82138-41.55725-35.1133-65.36969c-7.21091-23.54785-12.42149-49.8075-11.78381-74.50397
			c0.27412-10.61581,0.88663-21.28749,3.26366-31.66957c2.96924-12.96867,8.92342-25.6257,18.92878-34.3947
			s24.47615-13.04811,37.08887-8.8147c8.74953,2.93674,15.90997,9.6391,20.6857,17.53662
			c4.77573,7.89754,7.34694,16.94576,8.92537,26.03899c1.05777,6.09373,1.68581,12.40309,0.27057,18.42384
			c-0.54822,2.33224-1.75012,4.91922-4.08966,5.43546c-2.09372,0.46194-4.21307-1.06436-5.16844-2.98383
			c-0.95538-1.91946-1.02733-4.14084-1.11316-6.28319c-0.37741-9.42117-1.40721-18.91791-4.54045-27.81081
			c-3.13326-8.8929-8.5239-17.20471-16.28917-22.55275c-1.3323-0.91757-2.8046-1.76871-4.42085-1.8371
			c-3.05186-0.12914-5.46349,2.48119-7.20447,4.99106c-8.08017,11.6488-11.78977,25.80049-13.62992,39.85742
			c-5.20435,39.75603,3.46421,80.12099,16.2724,118.1154c7.13099,21.1535,15.7369,42.18701,29.54594,59.72644
			C149.52808,425.80811,149.61099,425.77875,149.69286,425.74808z"/>
		<path fill="#C1BBB2" d="M243.38777,320.62436c-0.05887,18.11707-1.18513,36.26672-5.5488,53.81403
			c-1.35718,5.45749-3.3512,11.29041-8.08015,14.33392c-4.7337,3.04657-10.95534,2.43082-16.3214,0.72931
			c-14.89494-4.72299-26.70589-16.81372-33.63467-30.8194c-11.43716-23.11877-13.99916-54.48395-4.14154-78.57651
			c4.27353-10.44479,11.7959-19.90784,22.03061-24.66254c5.509-2.5593,11.67577-3.68695,17.73398-3.2428
			c3.48941,0.25581,6.9834,1.04179,10.05849,2.71066c5.87273,3.18719,9.64268,9.25073,12.0965,15.4657
			c4.92159,12.46533,5.52893,26.16342,5.73433,39.5636C243.36963,313.49719,243.39935,317.06015,243.38777,320.62436z
			 M221.17867,383.77332c5.50996-5.65274,8.17807-13.47198,9.87302-21.18173c2.94994-13.4183,3.44766-27.25735,3.23753-40.99451
			c-0.20836-13.62146-1.10832-27.28183-3.84346-40.62747c-1.33154-6.49701-3.30193-13.26212-8.14087-17.79739
			c-1.45709-1.36566-3.43172-2.54428-5.35974-2.02383c-0.88252,0.23822-1.63701,0.8092-2.30797,1.42999
			c-2.93413,2.71472-4.6313,6.48856-6.05724,10.2229c-11.28329,29.54996-10.39777,67.26245,1.9725,96.44858
			C212.92149,374.85962,216.08247,380.43997,221.17867,383.77332z"/>
		<path fill="#C1BBB2" d="M395.49045,342.03833c-0.34268-24.71979,2.27637-49.59537,7.94434-73.30176
			c1.7753-7.42523,3.89688-14.87521,7.78357-21.44633c1.76538-2.98468,4.01437-5.87007,7.16745-7.3134
			c3.15308-1.44331,7.37244-1.01471,9.46356,1.75154c1.78949,2.36722,1.60205,5.63472,1.2803,8.5847
			c-1.91779,17.58423-5.67789,34.91653-8.0296,52.448c-3.83032,28.55402-3.90543,57.41666-5.86792,86.12009
			c-0.19135,2.79861-0.55206,5.90897-2.69012,7.72488c-2.78751,2.36755-7.35873,1.14893-9.74911-1.61899
			c-2.39041-2.76791-3.14099-6.55518-3.7056-10.16858C396.89481,370.78595,395.69009,356.43857,395.49045,342.03833z"/>
	</g>
	<path fill="#E9C07D" d="M406.12027,201.53981c0.05402-5.14636,0.86072-10.04645,3.52151-14.84196
		c3.31735-5.97887,8.89185-10.72588,15.41214-12.78439c6.52029-2.05853,13.92352-1.33296,19.78406,2.18925
		c2.82791,1.6996,5.44138,4.32433,5.73846,7.61026c0.17203,1.90295-0.45618,3.78249-1.16986,5.5549
		c-1.25323,3.11234-2.79926,6.1067-4.61099,8.93066c-1.58835,2.47571-3.43216,4.9493-3.82712,7.86409
		c-0.3858,2.84735,0.67361,5.66107,1.32715,8.45914c0.659,2.82135,0.90884,5.78236,0.30582,8.6162
		c-0.603,2.83383-2.12054,5.53638-4.48526,7.21039c-2.00092,1.41646-4.48273,2.02538-6.9313,2.14514
		c-6.62704,0.32417-13.18124-2.85088-17.60492-7.79597c-4.41257-4.93272-6.92676-11.56718-7.31573-18.12527
		C406.16306,204.8663,406.10294,203.1904,406.12027,201.53981z M465.37659,166.34358
		c-0.11072-1.38957-0.71338-2.78839-1.83514-3.61594c-1.77185-1.30714-4.29495-0.87979-6.28101,0.07082
		c-3.49576,1.67322-6.20694,4.84894-7.43893,8.51054c-0.59677,1.77364-1.07343,3.50853,0.09665,5.11757
		c1.0444,1.43622,2.76794,2.36288,4.52588,2.53328c2.38965,0.23161,4.79349-0.79733,6.55423-2.42949
		c1.76074-1.63217,2.93149-3.81703,3.7077-6.08897c0.41953-1.22789,0.73502-2.51645,0.68735-3.80957
		C465.38977,166.53577,465.38422,166.43968,465.37659,166.34358z M449.49698,163.0938
		c0.01987-1.60423-0.58878-3.27475-1.86127-4.25186c-1.38867-1.06633-3.39111-1.13734-4.98093-0.4039
		s-2.78113,2.17378-3.47723,3.7803c-1.26431,2.91788-1.65549,7.92015,1.88889,9.52628
		c1.37408,0.6226,3.04636,0.27441,4.28824-0.5818c1.24188-0.85623,2.11368-2.15108,2.80713-3.49068
		c0.58252-1.12537,1.0654-2.32843,1.25241-3.57487C449.46399,163.76563,449.4928,163.43092,449.49698,163.0938z
		 M428.12247,168.30739c0.55255,0.99097,1.49786,1.83151,2.62494,1.96191c1.28586,0.14877,2.50323-0.63734,3.39807-1.57269
		c1.59683-1.66916,2.55591-3.93407,2.64334-6.2424c0.04886-1.2905-0.17639-2.6151-0.82004-3.73468s-1.73785-2.01231-3.00812-2.24518
		c-1.97626-0.36227-3.97986,0.95395-4.9397,2.71906c-0.65295,1.20074-0.98849,2.68744-1.01794,4.19441
		C426.96875,165.13927,427.34787,166.91814,428.12247,168.30739z M418.80206,169.71802
		c0.39597,0.61096,0.86725,1.22136,1.53946,1.50104c0.74899,0.31165,1.63766,0.14522,2.32397-0.28735
		c0.68631-0.43259,1.19373-1.10085,1.59122-1.80804c1.37234-2.44168,1.53473-5.52675,0.42624-8.099
		c-0.40988-0.9512-0.99643-1.84663-1.81509-2.48114c-0.8187-0.63449-1.88843-0.98521-2.90839-0.8051
		c-1.30737,0.23085-2.35217,1.29871-2.8674,2.52222c-0.46252,1.09839-0.61209,2.24178-0.53677,3.38046
		C416.69781,165.79582,417.64563,167.93372,418.80206,169.71802z M415.88458,169.54906
		c-0.23676-1.25517-0.68823-2.49567-1.4989-3.48274c-0.84726-1.03159-2.07452-1.74374-3.39056-1.96747
		c-0.74786-0.12712-1.55591-0.09053-2.20923,0.29498c-0.73837,0.43573-1.1777,1.26273-1.34192,2.1042
		c-0.59668,3.05717,0.78687,6.40977,3.03168,8.4695c0.80869,0.74203,1.87268,1.37485,2.94949,1.16257
		c1.01489-0.20007,1.75204-1.1075,2.1459-2.064c0.271-0.65822,0.41913-1.35588,0.4715-2.0652
		C416.10278,171.185,416.03635,170.35364,415.88458,169.54906z"/>
</g>
</svg>
